<svg width="66" height="22" viewBox="0 0 66 22" fill="none" xmlns="http://www.w3.org/2000/svg">
<path fill-rule="evenodd" clip-rule="evenodd" d="M65.8488 0.0141602L10.4319 0.0249942C7.52314 0.130346 5.48989 2.20077 4.80256 5.12222C3.89117 8.35152 0 21.9856 0 21.9856H55.5545C57.7328 21.9856 59.9882 20.5734 60.425 19.0391L65.8488 0.0141602Z" fill="#F39A05"/>
<path fill-rule="evenodd" clip-rule="evenodd" d="M48.6126 15.4761C47.7191 15.4761 46.9359 15.3658 46.2819 15.1482C45.6325 14.9325 45.107 14.6269 44.718 14.242C44.339 13.8661 44.09 13.4098 43.9775 12.8866C43.8684 12.3744 43.9012 11.8014 44.0755 11.183C44.2391 10.6005 44.522 10.0551 44.9163 9.56176C45.3156 9.06163 45.8083 8.6227 46.3803 8.25818C46.9717 7.88119 47.6505 7.58051 48.3971 7.3652C49.1594 7.14497 49.9823 7.03316 50.8449 7.03316C51.6293 7.03316 52.3386 7.13213 52.9533 7.3278C53.5653 7.52347 54.0756 7.79507 54.4679 8.13541C55.4251 8.98533 55.7115 10.0283 55.3462 11.3266L55.3458 11.3269C55.1734 11.9362 54.8912 12.4964 54.5061 12.9916C54.119 13.4891 53.6416 13.9224 53.0852 14.279C52.5098 14.6492 51.8409 14.9423 51.0989 15.1527C50.337 15.3669 49.5007 15.4761 48.6126 15.4761M51.8459 4.00464C50.6576 4.00464 49.4843 4.16556 48.3574 4.48248C47.2203 4.80281 46.1598 5.25496 45.2065 5.82724C42.8445 7.24981 41.328 9.10074 40.7007 11.3268C40.0738 13.5505 40.5184 15.3701 42.0231 16.733C42.6298 17.28 43.4219 17.7174 44.3748 18.0324C45.3262 18.3463 46.4149 18.5057 47.6104 18.5057C48.8109 18.5057 49.988 18.3482 51.1118 18.037C52.2486 17.7223 53.3011 17.2785 54.2384 16.7186C56.571 15.3187 58.0788 13.4565 58.7194 11.1832C59.336 8.99535 58.8845 7.18333 57.3779 5.79815L57.3767 5.79702C56.7727 5.23796 55.9856 4.79374 55.0376 4.47833C54.0916 4.16367 53.0181 4.00464 51.8459 4.00464" fill="#20264A"/>
<path fill-rule="evenodd" clip-rule="evenodd" d="M37.3695 9.24846C37.2062 9.82454 36.9193 10.0661 36.6889 10.2115C36.2956 10.4598 35.7176 10.5913 35.0191 10.5913H27.429L28.2748 7.61798H35.5086C36.4417 7.61798 37.0063 7.78953 37.2848 8.15847C37.5717 8.53753 37.4454 8.98252 37.3699 9.24846H37.3695ZM34.7825 18.5046H38.8107L36.5195 13.2947L36.909 13.158C36.9944 13.1281 37.078 13.097 37.1611 13.0644C37.7204 12.8456 38.2442 12.549 38.718 12.1834C39.2048 11.8088 39.6305 11.356 39.9845 10.8368C40.3325 10.3286 40.6014 9.74499 40.7834 9.10336C41.1813 7.70287 41.0435 6.58255 40.3733 5.77424C39.7179 4.98391 38.6043 4.5835 37.0631 4.5835H25.8225L21.8638 18.5046H25.1793L26.5672 13.627H32.523L34.7825 18.5046Z" fill="#20264A"/>
<path fill-rule="evenodd" clip-rule="evenodd" d="M18.2028 10.591H10.6377L11.4834 7.61798H18.7493C19.6374 7.61798 20.2004 7.79141 20.4706 8.14912C20.7591 8.53044 20.6305 8.97993 20.5542 9.2485C20.3897 9.82572 20.1069 10.0673 19.8794 10.2134L19.879 10.2138C19.4859 10.464 18.9226 10.591 18.2028 10.591V10.591ZM5.04248 18.5046H8.36667L9.76695 13.6272H17.1512C18.8938 13.6272 20.3631 13.2418 21.5196 12.4818C22.7344 11.6843 23.5618 10.5355 23.9801 9.0679C24.172 8.39329 24.2285 7.767 24.1491 7.20739C24.0705 6.65227 23.8686 6.17319 23.5484 5.78363C23.232 5.39857 22.7905 5.09854 22.2359 4.89177C21.689 4.68688 21.0387 4.5835 20.3032 4.5835H9.03685L5.04248 18.5046Z" fill="#20264A"/>
</svg>
