<svg xmlns="http://www.w3.org/2000/svg" xmlns:xlink="http://www.w3.org/1999/xlink"><defs>
<clipPath id="clip0_223_3623">
<rect width="36" height="36" fill=""/>
</clipPath>

<clipPath id="clip0_502_24377">
<rect width="24" height="24" fill=""/>
</clipPath>

<clipPath id="clip0_223_3640">
<rect width="81.6832" height="55" fill="" transform="translate(0.0177002 0.5)"/>
</clipPath>

<clipPath id="clip0_223_3667">
<rect width="87.2368" height="65" fill="" transform="translate(0.745483 0.5)"/>
</clipPath>
</defs><symbol id="arrow" viewBox="0 0 36 36"><g fill="">
<g clip-path="url(#clip0_223_3623)">
<rect x="18.0698" y="0.392578" width="24.4446" height="2.79016" transform="rotate(45 18.0698 0.392578)" fill=""/>
<rect x="35.355" y="17.6777" width="24.5534" height="2.77779" transform="rotate(135 35.355 17.6777)" fill=""/>
<rect width="31.9365" height="3.34078" transform="matrix(-0.999997 0.00222076 0.00222076 -0.999997 33.603 19.2734)" fill=""/>
</g>

</g></symbol><symbol id="pro" viewBox="0 0 66 22"><g fill="none">
<path fill-rule="evenodd" clip-rule="evenodd" d="M65.8488 0.0141602L10.4319 0.0249942C7.52314 0.130346 5.48989 2.20077 4.80256 5.12222C3.89117 8.35152 0 21.9856 0 21.9856H55.5545C57.7328 21.9856 59.9882 20.5734 60.425 19.0391L65.8488 0.0141602Z" fill="#F39A05"/>
<path fill-rule="evenodd" clip-rule="evenodd" d="M48.6126 15.4761C47.7191 15.4761 46.9359 15.3658 46.2819 15.1482C45.6325 14.9325 45.107 14.6269 44.718 14.242C44.339 13.8661 44.09 13.4098 43.9775 12.8866C43.8684 12.3744 43.9012 11.8014 44.0755 11.183C44.2391 10.6005 44.522 10.0551 44.9163 9.56176C45.3156 9.06163 45.8083 8.6227 46.3803 8.25818C46.9717 7.88119 47.6505 7.58051 48.3971 7.3652C49.1594 7.14497 49.9823 7.03316 50.8449 7.03316C51.6293 7.03316 52.3386 7.13213 52.9533 7.3278C53.5653 7.52347 54.0756 7.79507 54.4679 8.13541C55.4251 8.98533 55.7115 10.0283 55.3462 11.3266L55.3458 11.3269C55.1734 11.9362 54.8912 12.4964 54.5061 12.9916C54.119 13.4891 53.6416 13.9224 53.0852 14.279C52.5098 14.6492 51.8409 14.9423 51.0989 15.1527C50.337 15.3669 49.5007 15.4761 48.6126 15.4761M51.8459 4.00464C50.6576 4.00464 49.4843 4.16556 48.3574 4.48248C47.2203 4.80281 46.1598 5.25496 45.2065 5.82724C42.8445 7.24981 41.328 9.10074 40.7007 11.3268C40.0738 13.5505 40.5184 15.3701 42.0231 16.733C42.6298 17.28 43.4219 17.7174 44.3748 18.0324C45.3262 18.3463 46.4149 18.5057 47.6104 18.5057C48.8109 18.5057 49.988 18.3482 51.1118 18.037C52.2486 17.7223 53.3011 17.2785 54.2384 16.7186C56.571 15.3187 58.0788 13.4565 58.7194 11.1832C59.336 8.99535 58.8845 7.18333 57.3779 5.79815L57.3767 5.79702C56.7727 5.23796 55.9856 4.79374 55.0376 4.47833C54.0916 4.16367 53.0181 4.00464 51.8459 4.00464" fill="#20264A"/>
<path fill-rule="evenodd" clip-rule="evenodd" d="M37.3695 9.24846C37.2062 9.82454 36.9193 10.0661 36.6889 10.2115C36.2956 10.4598 35.7176 10.5913 35.0191 10.5913H27.429L28.2748 7.61798H35.5086C36.4417 7.61798 37.0063 7.78953 37.2848 8.15847C37.5717 8.53753 37.4454 8.98252 37.3699 9.24846H37.3695ZM34.7825 18.5046H38.8107L36.5195 13.2947L36.909 13.158C36.9944 13.1281 37.078 13.097 37.1611 13.0644C37.7204 12.8456 38.2442 12.549 38.718 12.1834C39.2048 11.8088 39.6305 11.356 39.9845 10.8368C40.3325 10.3286 40.6014 9.74499 40.7834 9.10336C41.1813 7.70287 41.0435 6.58255 40.3733 5.77424C39.7179 4.98391 38.6043 4.5835 37.0631 4.5835H25.8225L21.8638 18.5046H25.1793L26.5672 13.627H32.523L34.7825 18.5046Z" fill="#20264A"/>
<path fill-rule="evenodd" clip-rule="evenodd" d="M18.2028 10.591H10.6377L11.4834 7.61798H18.7493C19.6374 7.61798 20.2004 7.79141 20.4706 8.14912C20.7591 8.53044 20.6305 8.97993 20.5542 9.2485C20.3897 9.82572 20.1069 10.0673 19.8794 10.2134L19.879 10.2138C19.4859 10.464 18.9226 10.591 18.2028 10.591V10.591ZM5.04248 18.5046H8.36667L9.76695 13.6272H17.1512C18.8938 13.6272 20.3631 13.2418 21.5196 12.4818C22.7344 11.6843 23.5618 10.5355 23.9801 9.0679C24.172 8.39329 24.2285 7.767 24.1491 7.20739C24.0705 6.65227 23.8686 6.17319 23.5484 5.78363C23.232 5.39857 22.7905 5.09854 22.2359 4.89177C21.689 4.68688 21.0387 4.5835 20.3032 4.5835H9.03685L5.04248 18.5046Z" fill="#20264A"/>
</g></symbol><symbol id="bags" viewBox="0 0 24 24"><g fill="">
<path fill-rule="evenodd" clip-rule="evenodd" d="M8.74258 1.68457C10.628 1.68457 12.2101 3.27567 12.3102 5.17142L12.3152 5.36196L12.3148 5.57457L15.7934 5.57501L15.7928 9.92257L22.75 9.92283V21.8576H11.25V9.92283L14.2928 9.92257L14.293 7.07487H3.18397V20.3569L7.52171 20.3576V21.8576H1.68475V5.57501L5.16275 5.57457L5.16301 5.36196C5.16301 3.38433 6.79362 1.68457 8.74258 1.68457ZM21.25 11.4219H12.75V20.3569H21.25V11.4219ZM15.3587 12.8467V15.4607C15.3587 16.3616 16.1293 17.1541 17.0026 17.1541C17.8288 17.1541 18.5603 16.4444 18.635 15.6022L18.6413 15.4607V12.8467H20.1413V15.4607C20.1413 17.1814 18.7138 18.6541 17.0026 18.6541C15.3503 18.6541 13.9578 17.2807 13.8637 15.6377L13.8587 15.4607V12.8467H15.3587ZM8.74258 3.18457C7.6844 3.18457 6.7479 4.11284 6.66847 5.2112L6.66301 5.36196L6.66275 5.57457H10.8148L10.8152 5.36196C10.8152 4.19724 9.847 3.18457 8.74258 3.18457Z" fill=""/>
</g></symbol><symbol id="list" viewBox="0 0 24 24"><g fill="">
<path fill-rule="evenodd" clip-rule="evenodd" d="M3 6C3 5.0335 3.7835 4.25 4.75 4.25H19.2539C20.2204 4.25 21.0039 5.0335 21.0039 6V15.4961C21.0039 15.9103 20.6681 16.2461 20.2539 16.2461C19.8397 16.2461 19.5039 15.9103 19.5039 15.4961V6C19.5039 5.86193 19.392 5.75 19.2539 5.75H4.75C4.61193 5.75 4.5 5.86193 4.5 6V17.4961C4.5 17.6342 4.61193 17.7461 4.75 17.7461H17.2539C17.6681 17.7461 18.0039 18.0819 18.0039 18.4961C18.0039 18.9103 17.6681 19.2461 17.2539 19.2461H4.75C3.7835 19.2461 3 18.4626 3 17.4961V6ZM8.00391 8.49609C8.00391 8.08188 8.33969 7.74609 8.75391 7.74609H13.2539C13.6681 7.74609 14.0039 8.08188 14.0039 8.49609C14.0039 8.91031 13.6681 9.24609 13.2539 9.24609H8.75391C8.33969 9.24609 8.00391 8.91031 8.00391 8.49609ZM8.00391 11.7383C8.00391 11.3241 8.33969 10.9883 8.75391 10.9883H15.2617C15.6759 10.9883 16.0117 11.3241 16.0117 11.7383C16.0117 12.1525 15.6759 12.4883 15.2617 12.4883H8.75391C8.33969 12.4883 8.00391 12.1525 8.00391 11.7383ZM8.00391 14.9961C8.00391 14.5819 8.33969 14.2461 8.75391 14.2461H13.2617C13.6759 14.2461 14.0117 14.5819 14.0117 14.9961C14.0117 15.4103 13.6759 15.7461 13.2617 15.7461H8.75391C8.33969 15.7461 8.00391 15.4103 8.00391 14.9961Z" fill=""/>
</g></symbol><symbol id="service" viewBox="0 0 24 24"><g fill="">
<g clip-path="url(#clip0_502_24377)">
<mask id="mask0_502_24377" style="mask-type:alpha" maskUnits="userSpaceOnUse" x="0" y="0" width="24" height="24">
<path d="M24 0H0V24H24V0Z" fill=""/>
</mask>
<g mask="url(#mask0_502_24377)">
<path d="M15.5952 3.2559C14.0843 3.18596 12.6097 3.73975 11.5233 4.82612L11.3502 5.00739C10.1758 6.29615 9.72066 8.05313 10.0643 9.72678L10.124 9.98803L3.0541 17.0578C1.98196 18.1299 1.98196 19.874 3.05411 20.946L3.19149 21.0744C4.26981 22.0162 5.90806 21.9734 6.93548 20.946L14.013 13.868L14.0249 13.8717C15.8519 14.3355 17.8071 13.8382 19.168 12.4774C20.6238 11.0217 21.1113 8.88247 20.48 6.95908C20.3659 6.6299 20.0999 6.392 19.7724 6.31787L19.6492 6.29817C19.361 6.27094 19.073 6.37372 18.8665 6.58269L16.784 8.65803L15.662 8.33903L15.341 7.20503L17.4207 5.13221C17.662 4.8885 17.7579 4.54187 17.6774 4.21351C17.5968 3.88516 17.3514 3.62228 17.0294 3.51938C16.5668 3.36753 16.0838 3.27852 15.5952 3.2559ZM15.5458 4.75495L15.665 4.76403L13.6585 6.76506L14.4467 9.55304L17.22 10.3425L19.238 8.32903L19.2508 8.55057C19.2775 9.59812 18.8822 10.6419 18.1074 11.4167C17.043 12.481 15.4689 12.8122 14.0485 12.3136L13.6034 12.1573L5.87485 19.8853C5.38854 20.3716 4.60104 20.3716 4.11473 19.8853C3.62843 19.3991 3.62843 18.6048 4.11472 18.1185L11.8369 10.3968L11.6797 9.95118C11.18 8.53423 11.5152 6.95546 12.5839 5.88682C13.312 5.15883 14.2805 4.76261 15.2918 4.7503L15.5458 4.75495Z" fill=""/>
</g>
</g>

</g></symbol><symbol id="adidas" viewBox="0 0 82 56"><g fill="">
<g id="adidas_logo" clip-path="url(#clip0_223_3640)">
<g id="Group 3">
<mask id="mask0_223_3640" style="mask-type:alpha" maskUnits="userSpaceOnUse" x="69" y="41" width="13" height="15">
<path id="Clip 2" fill-rule="evenodd" clip-rule="evenodd" d="M69.0865 41.2332H81.7009V55.5001H69.0865V41.2332Z" fill=""/>
</mask>
<g mask="url(#mask0_223_3640)">
<path id="Fill 1" fill-rule="evenodd" clip-rule="evenodd" d="M71.3545 48.9812C72.2746 49.4413 73.5235 49.7113 74.9995 49.9389C76.4787 50.169 77.8658 50.2596 77.9606 51.351C77.9606 52.0351 77.2198 52.9433 75.6454 52.9433C73.29 52.9029 72.7383 51.6244 72.7383 50.7633H69.0865C69.2284 53.544 71.5345 55.5001 75.4194 55.5001C78.8843 55.5001 81.7009 54.1784 81.7009 50.7633C81.7009 48.8877 80.3133 47.5688 78.1432 47.0177C75.8768 46.43 72.9688 46.5234 72.9688 45.1054C73.0602 44.1534 73.981 43.8765 75.368 43.8765C77.4501 43.8765 77.5884 45.0181 77.6323 45.7464H81.1456C80.9152 43.0556 78.6948 41.2332 75.188 41.2332C71.5817 41.2332 69.4085 43.1924 69.4085 45.6558C69.4085 47.1112 70.193 48.3897 71.3545 48.9812Z" fill=""/>
</g>
</g>
<g id="Group 6">
<mask id="mask1_223_3640" style="mask-type:alpha" maskUnits="userSpaceOnUse" x="8" y="25" width="23" height="31">
<path id="Clip 5" fill-rule="evenodd" clip-rule="evenodd" d="M8.9098 25.5188H30.8298V55.5H8.9098V25.5188Z" fill=""/>
</mask>
<g mask="url(#mask1_223_3640)">
<path id="Fill 4" fill-rule="evenodd" clip-rule="evenodd" d="M23.3872 52.2377C21.1804 52.2377 19.3422 50.4448 19.3422 48.2854C19.3422 46.1286 21.1804 44.2893 23.3872 44.2893C25.5465 44.2893 27.3832 46.1286 27.3832 48.2854C27.3832 50.4448 25.5465 52.2377 23.3872 52.2377ZM27.3832 36.5419V42.3654C26.192 41.5374 24.812 41.1241 23.2966 41.1241C19.2984 41.1241 16.0366 44.2894 16.0366 48.2854C16.0366 52.2377 19.2984 55.5 23.2966 55.5C24.812 55.5 26.192 55.0426 27.3832 54.2591V55.1803H30.8298V36.5419H27.3867L20.9977 25.5188L8.9098 32.4551L11.256 36.5419H27.3832Z" fill=""/>
</g>
</g>
<mask id="mask2_223_3640" style="mask-type:alpha" maskUnits="userSpaceOnUse" x="0" y="0" width="82" height="56">
<path id="Clip 8" fill-rule="evenodd" clip-rule="evenodd" d="M0.0177002 55.5H81.7009V0.5H0.0177002V55.5Z" fill=""/>
</mask>
<g mask="url(#mask2_223_3640)">
<path id="Fill 7" fill-rule="evenodd" clip-rule="evenodd" d="M32.2774 55.0863H35.7929V41.2329H32.2774V55.0863Z" fill=""/>
<path id="Fill 9" fill-rule="evenodd" clip-rule="evenodd" d="M7.28989 44.3743C9.48753 44.3743 11.317 46.1997 11.317 48.3402C11.317 50.4832 9.48753 52.2624 7.28989 52.2624C5.13936 52.2624 3.31119 50.4832 3.31119 48.3402C3.31119 46.1997 5.13936 44.3743 7.28989 44.3743ZM7.19625 55.5001C8.75353 55.5001 10.1751 55.0462 11.317 54.2685V55.1828H14.7V41.37H11.317V42.4651C10.1243 41.6434 8.71002 41.2332 7.19625 41.2332C3.26759 41.2332 0.0177002 44.3744 0.0177002 48.3403C0.0177002 52.2625 3.26759 55.5001 7.19625 55.5001Z" fill=""/>
<path id="Fill 10" fill-rule="evenodd" clip-rule="evenodd" d="M69.7069 36.4774L48.8717 0.5L36.8268 7.44776L53.5876 36.4774H69.7069Z" fill=""/>
<path id="Fill 11" fill-rule="evenodd" clip-rule="evenodd" d="M32.4692 39.9925H35.9097V36.5489H48.614L35.0863 13.1128L22.9717 20.0513L32.4692 36.5489V39.9925Z" fill=""/>
<path id="Fill 12" fill-rule="evenodd" clip-rule="evenodd" d="M60.482 52.2624C58.3317 52.2624 56.5063 50.4832 56.5063 48.3401C56.5063 46.1997 58.3317 44.3743 60.482 44.3743C62.6321 44.3743 64.4127 46.1997 64.4127 48.3401C64.4127 50.4832 62.6321 52.2624 60.482 52.2624ZM67.8457 55.1828V41.37H64.4127V42.465C63.2649 41.6434 61.8546 41.2332 60.3468 41.2332C56.4161 41.2332 53.1634 44.3744 53.1634 48.3402C53.1634 52.2625 56.4161 55.5001 60.3468 55.5001C61.8981 55.5001 63.2649 55.0462 64.4127 54.2685V55.1828H67.8457Z" fill=""/>
<path id="Fill 13" fill-rule="evenodd" clip-rule="evenodd" d="M44.5176 52.2272C42.4085 52.2272 40.5796 50.4285 40.5796 48.2621C40.5796 46.0983 42.4085 44.2532 44.5176 44.2532C46.7111 44.2532 48.5363 46.0983 48.5363 48.2621C48.5363 50.4285 46.7111 52.2272 44.5176 52.2272ZM44.4216 41.0775C40.4894 41.0775 37.2404 44.253 37.2404 48.262C37.2404 52.227 40.4894 55.4999 44.4216 55.4999C45.9787 55.4999 47.3947 55.041 48.5363 54.2549V55.1791H51.9227V36.4773H48.5363V42.3228C47.3511 41.4922 45.9787 41.0775 44.4216 41.0775Z" fill=""/>
</g>
</g>

</g></symbol><symbol id="demix" viewBox="0 0 192 66"><g fill="">
<path fill-rule="evenodd" clip-rule="evenodd" d="M17.782 33.4301C17.9493 33.8372 18.3505 34.8208 18.4603 35.0908C18.5493 35.3308 18.5226 35.6005 18.3885 35.8167C18.114 36.2807 13.5761 44.0686 13.5761 44.0686C13.5761 44.0686 22.5316 38.6524 23.951 37.7895C24.4973 37.462 24.8866 36.9121 25.0247 36.2731C25.1627 35.6341 25.0369 34.9643 24.6777 34.426C24.1875 33.6716 16.4188 21.6805 16.0738 21.1459C15.9413 20.9177 15.939 20.6327 16.0676 20.4021C16.1962 20.1716 16.4354 20.0318 16.692 20.0374H18.4839C19.1244 20.0154 19.7513 20.2325 20.2509 20.6493C25.0475 24.6097 35.4472 33.2008 38.3749 35.6268C39.2783 36.3747 39.4743 37.7188 38.8245 38.7107C37.8956 40.1037 36.5288 41.1178 34.9584 41.5789C32.6267 42.4663 10.1754 50.9787 6.46614 52.4128C5.37239 52.8344 4.21375 53.0455 3.04707 53.0356H0.660512C0.409741 53.0398 0.180259 52.8898 0.0755168 52.6532C-0.0292253 52.4166 0.0105563 52.1382 0.176928 51.9433C1.14802 50.8471 16.2659 33.9796 16.8933 33.2809C17.0151 33.1406 17.1972 33.0741 17.3768 33.1043C17.5564 33.1345 17.709 33.2572 17.782 33.4301ZM107.499 37.2115C107.093 36.8135 106.546 36.6099 105.989 36.6498H93.3649L94.7399 33.9159H110.02C111.143 33.9434 112.208 33.3949 112.866 32.4492L113.461 31.2688C113.705 30.8766 113.655 30.3613 113.341 30.0273C112.926 29.6326 112.374 29.4294 111.812 29.4643H91.0306C89.9121 29.4325 88.8505 29.9763 88.1945 30.9174L80.3421 46.4945C80.0924 46.8914 80.1384 47.4144 80.4532 47.7577C80.8641 48.1504 81.4104 48.3539 81.968 48.3221H102.625C103.751 48.3537 104.818 47.8019 105.472 46.85L106.098 45.6425C106.317 45.2499 106.264 44.7543 105.967 44.4214C105.56 44.0369 105.02 43.841 104.472 43.8787H89.7158L91.13 41.0796H104.2C105.32 41.1038 106.381 40.5594 107.043 39.6211L107.649 38.4543C107.876 38.0519 107.815 37.5411 107.5 37.2088L107.499 37.2115ZM190.788 30.0545C190.985 30.4751 190.657 30.9879 189.898 31.4587L177.659 38.8952L182.555 46.4932C182.811 46.8525 182.779 47.3514 182.479 47.6722C182.032 48.1266 181.42 48.3641 180.796 48.3262L177.063 48.5365C175.87 48.6633 174.703 48.1216 173.998 47.1146L171.273 42.815L164.335 47.0345C163.106 47.8447 161.686 48.2913 160.23 48.3262H155.932C155.557 48.458 155.143 48.3563 154.864 48.0641C154.586 47.772 154.493 47.3407 154.625 46.9533C154.756 46.5659 155.089 46.2903 155.482 46.2435L168.408 38.3892L163.814 31.3C163.563 30.9466 163.589 30.458 163.877 30.1359C164.324 29.6682 164.942 29.4213 165.576 29.4575H169.445C170.64 29.3462 171.801 29.9111 172.483 30.9364L174.781 34.5047L181.447 30.452C182.769 29.7581 184.238 29.4163 185.719 29.4575H189.501C190.008 29.3511 190.525 29.5889 190.789 30.0504L190.788 30.0545ZM160.126 30.0301C160.438 30.3625 160.492 30.8728 160.256 31.2674L152.36 46.8432C151.689 47.8033 150.605 48.3566 149.463 48.3208H146.11C145.545 48.3552 144.992 48.1495 144.576 47.7509C144.267 47.4321 144.213 46.9327 144.446 46.5502L152.314 30.9364C152.973 29.9895 154.037 29.4372 155.162 29.4575H158.576C159.147 29.4207 159.708 29.6275 160.128 30.0301H160.126ZM148.735 30.0111C149.059 30.3563 149.113 30.8867 148.866 31.2946L141.033 46.8229C140.384 47.789 139.309 48.3501 138.175 48.3153H134.93C134.37 48.356 133.82 48.1569 133.406 47.7645C133.094 47.415 133.046 46.8927 133.287 46.4878L138.13 36.7895L127.86 47.0128C126.944 47.8056 125.802 48.2633 124.61 48.3153H123.316C122.291 48.4732 121.323 47.7847 121.094 46.736L120.989 36.7895L115.96 46.7645C115.313 47.7374 114.233 48.3002 113.095 48.257H109.85C109.296 48.3014 108.748 48.1048 108.339 47.7143C108.024 47.3685 107.973 46.8455 108.216 46.4416L116.058 30.9567C116.707 30.0006 117.768 29.4377 118.894 29.4521H124.811C125.384 29.4346 125.946 29.6145 126.409 29.9636C126.77 30.2245 126.982 30.655 126.974 31.1114L126.999 40.4406L136.671 30.8251C137.57 29.9818 138.727 29.4954 139.938 29.4521H147.26C147.803 29.4197 148.335 29.6197 148.733 30.0056L148.735 30.0111ZM81.8242 32.1941C83.2371 33.7693 83.1704 36.0229 81.6204 39.0486C78.3725 45.4539 72.197 48.3153 61.5673 48.3153H50.1861C49.6169 48.35 49.0584 48.1445 48.6373 47.7455C48.3389 47.4203 48.289 46.9272 48.5158 46.5447L54.0979 35.4938H62.1698L58.0816 43.5056H63.3252C70.0457 43.5056 71.9996 42.1379 73.734 38.7189C74.696 36.8343 74.845 35.6946 74.2411 35.0189C73.5733 34.2632 71.8049 33.9037 68.693 33.9037H66.6188C66.6188 33.9037 56.0989 33.9037 55.7578 33.9037C55.0373 33.9205 54.3165 33.8892 53.5999 33.81C53.0967 33.7042 52.8994 33.4885 52.9987 33.1805C53.4078 31.9146 54.1776 30.8074 55.2062 30.0056C55.9495 29.5588 56.8105 29.3687 57.6646 29.4629C58.2084 29.4494 58.739 29.4494 59.284 29.4494H70.6848C76.5336 29.4494 80.1944 30.3503 81.8256 32.1914" fill=""/>
</g></symbol><symbol id="kappa" viewBox="0 0 88 66"><g fill="">
<g clip-path="url(#clip0_223_3667)">
<path fill-rule="evenodd" clip-rule="evenodd" d="M62.1688 42.9893C63.8695 42.9976 65.412 43.7333 66.31 45.6187C66.4677 45.9496 66.6034 46.3233 66.7192 46.6992C67.0732 47.8511 67.2356 49.0216 67.2356 49.0216L67.2556 53.8767C67.2556 53.8767 67.1741 56.2126 66.482 57.787C66.3852 58.0069 66.2781 58.2139 66.1609 58.4066C65.2157 59.978 63.6365 60.7154 61.9077 60.6475C60.1455 60.5782 59.3814 59.4518 59.3814 59.4518C59.3814 59.4518 58.9256 59.3587 58.7741 59.4187C58.6226 59.4785 58.563 59.8727 58.563 59.8727L58.5735 62.3091L58.5783 63.4532C58.5783 63.4532 58.7016 63.8786 59.098 64.3357C59.4948 64.7925 59.8902 64.9464 59.8902 64.9464L59.8926 65.4926L53.0284 65.4592L53.026 64.9131C53.026 64.9131 53.5409 64.5817 53.8739 64.3102C54.207 64.0389 54.4776 63.4332 54.4776 63.4332L54.4733 62.3094L54.4571 58.4068L54.4085 46.699L54.4013 45.0148C54.4013 45.0148 54.1264 44.6797 53.6386 44.2223C53.1508 43.7648 52.7254 43.7323 52.7254 43.7323L52.7235 43.1862L58.6464 43.2151C58.6464 43.2151 58.6173 43.5486 58.6493 43.9736C58.6816 44.3984 59.0151 44.3393 59.0151 44.3393C59.0151 44.3393 60.4676 42.981 62.1688 42.9893ZM48.2173 42.9216C49.9186 42.9298 51.5616 43.6661 52.359 45.5511C52.5091 45.9053 52.643 46.3033 52.7597 46.6994C53.0946 47.8361 53.2847 48.9539 53.2847 48.9539L53.3047 53.809C53.3047 53.809 53.2232 56.145 52.531 57.7194C52.4234 57.9643 52.3028 58.1932 52.1699 58.4066C51.2205 59.9308 49.6613 60.6468 47.9568 60.5799C46.1946 60.5105 45.431 59.3842 45.431 59.3842C45.431 59.3842 44.9746 59.291 44.8231 59.351C44.6712 59.4108 44.6125 59.8051 44.6125 59.8051L44.6226 62.3091L44.6273 63.3855C44.6273 63.3855 44.7502 63.811 45.1475 64.2678C45.5439 64.7249 45.9393 64.8785 45.9393 64.8785L45.9417 65.425L39.0771 65.3916L39.0749 64.8454C39.0749 64.8454 39.5899 64.5141 39.9229 64.2425C40.2558 63.9712 40.5267 63.3655 40.5267 63.3655L40.5224 62.3091L40.5062 58.4066L40.4576 46.699L40.4504 44.9472C40.4504 44.9472 40.1755 44.612 39.6878 44.1546C39.1999 43.6973 38.7746 43.6646 38.7746 43.6646L38.7722 43.1187L44.695 43.1473C44.695 43.1473 44.6664 43.4808 44.6983 43.9059C44.7302 44.3308 45.0642 44.2718 45.0642 44.2718C45.0642 44.2718 46.5167 42.9134 48.2173 42.9216ZM75.5747 42.6015C79.8574 42.6528 79.4173 46.2917 79.4173 46.2917L79.4186 46.699L79.4658 58.0041C79.4658 58.0041 79.4806 58.1846 79.574 58.4066H79.5704C79.6716 58.6439 79.856 58.9273 80.199 59.1C80.7968 59.4008 81.2022 59.3477 81.2022 59.3477L81.2051 59.9849L75.9506 59.9594L75.6443 59.3208L74.8544 59.3167L74.8451 59.335C74.8082 59.3958 74.6349 59.6066 73.885 59.9494C73.097 60.3098 72.1047 60.9398 70.0368 60.2621C69.1378 59.9677 68.5571 59.21 68.1874 58.4066L68.1898 58.4054C67.7367 57.4236 67.5995 56.3715 67.5814 56.0047C67.5481 55.337 67.9078 54.0946 68.9048 52.916C69.9024 51.7375 71.7817 50.8363 73.8426 49.754C75.9034 48.6717 75.7481 47.8213 75.7471 47.5179C75.7462 47.3645 75.7448 47.0096 75.508 46.699L75.4222 46.5993C75.1695 46.34 74.7195 46.1342 73.9188 46.1435C73.3476 46.1504 72.6969 46.3834 72.0723 46.699L72.0676 46.7002C70.8756 47.3069 69.7759 48.2211 69.5196 48.4401L69.4637 48.4885L69.4565 46.6992L69.4475 44.5745C69.4475 44.5745 71.2006 42.5493 75.5747 42.6015ZM34.1526 42.3982C38.4354 42.4495 37.9949 46.0882 37.9949 46.0882L37.9974 46.699L38.0434 57.8009C38.0434 57.8009 38.0687 58.101 38.254 58.4066L38.3468 58.5428C38.451 58.6765 38.5905 58.803 38.7769 58.8966C39.3746 59.1976 39.7802 59.1443 39.7802 59.1443L39.7828 59.7817L34.5283 59.7562L34.2219 59.1174L33.4323 59.1136L33.4185 59.1408C33.3676 59.2296 33.1525 59.5244 32.4027 59.8672C31.6144 60.2273 30.7854 60.8343 28.7284 60.1225C27.7854 59.796 27.1899 59.1279 26.8128 58.4066H26.8158C26.2657 57.3581 26.1788 56.1966 26.1592 55.8012C26.1262 55.1336 26.4854 53.8912 27.4828 52.7129C28.4804 51.5341 30.3597 50.6329 32.4205 49.5506C34.4814 48.4683 34.3261 47.6181 34.3249 47.3147C34.3244 47.1944 34.3234 46.95 34.2087 46.6997L34.159 46.6047C33.9562 46.2572 33.5043 45.9285 32.4966 45.9403C31.809 45.9484 31.0059 46.2843 30.2724 46.699H30.2714C29.0622 47.3847 28.0415 48.2856 28.0415 48.2856L28.0349 46.699L28.0252 44.3713C28.0252 44.3713 28.0341 44.3609 28.0523 44.3418L28.135 44.2592C28.5796 43.835 30.4034 42.3535 34.1526 42.3982ZM6.46615 39.7063L15.507 39.7502L15.4452 40.3335C15.4452 40.3335 14.5459 40.6792 14.0007 41.1436C13.5217 41.5515 13.3607 42.0451 13.3607 42.0451L13.3802 46.699L13.3806 46.8309L14.2496 46.8352L14.3749 46.699L18.6375 42.0707C18.6375 42.0707 18.8609 41.6048 18.8605 41.4882C18.8605 41.4882 18.6327 40.9033 18.4066 40.6981C18.1807 40.4926 17.8583 40.3453 17.8583 40.3453L17.8236 39.7615L27.669 39.8092L27.6714 40.3929C27.6714 40.3929 27.2521 40.1864 26.0657 41.1145C25.5815 41.4932 24.2979 42.8249 22.9479 44.2693L22.3674 44.8928C21.7871 45.5183 21.2138 46.1424 20.7052 46.699C19.6605 47.8404 18.8904 48.696 18.8904 48.696L18.8935 49.4546L24.4623 57.8859C24.4623 57.8859 24.6461 58.1129 24.9533 58.4047C25.0749 58.5195 25.2133 58.6427 25.3667 58.7656C25.9155 59.2062 27.0425 59.4449 27.0425 59.4449L27.1738 60.0585L18.905 60.0182L18.9025 59.4053C18.9025 59.4053 19.1905 59.0276 19.3179 58.7363C19.3576 58.6457 19.3692 58.5264 19.3661 58.4066L19.3689 58.4054C19.3596 58.1377 19.2822 57.8607 19.2822 57.8607L15.4311 52.4727L14.5632 52.6145C14.5632 52.6145 14.1774 52.7293 13.8257 53.2528C13.5289 53.6947 13.4113 54.1847 13.4113 54.1847L13.4264 57.8323C13.4264 57.8323 13.4272 58.0224 13.7334 58.4052C13.8075 58.4964 13.8978 58.5981 14.0092 58.7105C14.5908 59.297 15.2346 59.3875 15.2346 59.3875L15.2372 60.0004L6.93635 59.9603L6.9337 59.3472C6.9337 59.3472 7.4793 59.0293 7.92818 58.681C8.03667 58.5969 8.12636 58.5026 8.20007 58.4066C8.43135 58.1084 8.50388 57.8085 8.50388 57.8085L8.45781 46.699L8.43839 42.0211C8.43839 42.0211 8.21077 41.4658 7.69415 41.0255C7.17762 40.5853 6.46851 40.29 6.46851 40.29L6.46615 39.7063ZM34.194 52.3813C34.194 52.3813 32.8592 52.7691 31.8901 53.4622C30.7437 54.2823 30.4395 55.2153 30.4425 55.9435C30.4455 56.6716 30.8747 57.6449 32.1203 57.7418C33.3662 57.8387 34.2092 56.083 34.2092 56.083L34.194 52.3813ZM75.6152 52.3418C75.6152 52.3418 74.2804 52.7297 73.3114 53.4229C72.1647 54.243 71.8608 55.1758 71.8637 55.9039C71.867 56.6323 72.2958 57.6053 73.5415 57.7023C74.7872 57.7995 75.6305 56.0438 75.6305 56.0438L75.6152 52.3418ZM60.9606 46.1997C60.3394 46.1966 59.8812 46.4058 59.5443 46.6994C58.7603 47.3828 58.6316 48.525 58.6316 48.525L58.6578 54.9578C58.6578 54.9578 58.9422 57.3614 61.0678 57.4271C63.4069 57.4991 63.4855 54.4955 63.4855 54.4955L63.4626 48.9125C63.4626 48.9125 63.232 47.4843 62.3126 46.699C61.9673 46.406 61.5247 46.2023 60.9606 46.1997ZM46.8897 46.1349C46.2251 46.1318 45.7473 46.3715 45.4043 46.6978C44.6821 47.3859 44.5607 48.4599 44.5607 48.4599L44.5873 54.8926C44.5873 54.8926 44.8712 57.2969 46.9968 57.3621C49.3359 57.4343 49.415 54.4307 49.415 54.4307L49.3917 48.8477C49.3917 48.8477 49.1725 47.4919 48.3112 46.699C47.9563 46.37 47.4923 46.138 46.8897 46.1349ZM34.3653 0.533216L34.5819 0.540099C35.3342 0.609094 35.5647 1.00234 35.5647 1.00234L36.0878 1.00483C36.3495 1.00614 36.4484 1.20254 36.6452 1.36666C36.8421 1.53101 36.8742 1.40049 37.1034 1.49955C37.3328 1.59867 37.8587 2.28714 38.2552 3.26895C38.5194 3.92352 38.5518 4.70761 38.5547 5.41901L38.5554 6.09869L38.5625 6.40631C38.5988 7.28835 38.6362 8.4643 38.6049 8.75813C38.5733 9.05192 38.1137 8.55982 38.2133 8.91973C38.3128 9.27928 38.7061 9.50987 38.7398 9.77141C38.7736 10.0327 38.5768 9.8686 38.6105 10.13C38.6443 10.3914 39.0692 10.3282 39.1351 10.4593C39.2011 10.5903 38.8745 10.7192 38.9082 10.9481C38.9418 11.1769 39.2361 11.1456 39.2361 11.1456C39.2361 11.1456 39.3018 11.2111 39.2699 11.4072C39.238 11.6028 39.0747 11.6675 39.01 11.8303C38.9453 11.9935 39.0111 12.0918 39.0111 12.0918C39.0111 12.0918 39.8916 12.636 40.5538 13.5364C41.2771 14.5198 41.8705 15.6986 42.5619 16.8451C43.2533 17.9918 44.1775 20.0865 44.1775 20.0865C44.1775 20.0865 44.9855 17.8695 45.9283 16.5348L47.651 14.0935C47.651 14.0935 47.4861 13.766 47.2894 13.569C47.0921 13.372 47.0593 13.2414 47.1893 13.144C47.3198 13.0466 47.7772 12.8855 47.8415 12.6243C47.9053 12.3637 47.4137 12.0017 47.4137 12.0017C47.4123 11.753 47.5885 11.4121 48.0644 11.319C48.3912 11.2553 48.1921 10.5685 48.1921 10.5685C48.1921 10.5685 47.5628 10.0914 47.4347 9.1277C47.2994 8.11442 47.2365 8.73465 46.7086 7.52359C46.55 7.16044 46.7048 6.6743 46.8015 6.34799C46.8982 6.02191 46.9606 5.30373 47.0245 4.94468C47.0888 4.58585 47.4461 4.03215 47.9334 3.3813C48.4212 2.73042 48.9439 2.60229 49.434 2.53928C49.9242 2.47615 50.2844 2.6087 50.4797 2.41377C50.675 2.21854 50.6107 2.41433 51.231 2.22142C51.8517 2.02849 51.6878 1.99489 52.0804 1.99692C52.4729 1.99882 52.8988 2.19699 53.0946 2.19781C53.2908 2.19889 53.2899 2.00275 53.5843 1.97154C53.8782 1.94024 54.076 2.23511 54.4689 2.49845C54.8629 2.76163 55.0263 2.82774 55.256 3.05748C55.486 3.28729 55.4898 4.16913 55.4898 4.16913C55.4898 4.16913 55.6213 4.39848 55.8843 4.69362C56.1473 4.98885 56.3111 5.18572 56.4431 5.44762C56.5751 5.70952 56.6417 6.03655 56.6417 6.03655C56.6417 6.03655 57.2644 6.33345 57.5916 6.46564C57.9194 6.59784 57.8541 6.6631 57.8222 6.82614C57.7899 6.98944 57.5964 7.54369 57.7284 7.9035C57.8608 8.26364 57.7303 8.36093 57.7303 8.36093C57.7305 8.38348 57.7564 8.46262 57.9613 8.81933C58.2248 9.27774 58.3233 9.50712 58.3572 9.73578C58.391 9.96467 58.1957 10.1923 58.0332 10.4202C57.8708 10.6481 58.0028 10.9425 58.0028 10.9425C58.0028 10.9425 58.0191 10.9679 58.0496 11.0152L58.1812 11.2198C58.8027 12.1864 60.8635 15.3962 61.3927 16.2831C62.0182 17.3315 62.6466 19.0984 62.6466 19.0984C62.6267 19.1201 62.6362 19.2017 63.2368 19.5584C63.9581 19.9867 64.9718 19.9915 64.9718 19.9915L65.2653 19.8295C65.5592 19.6677 66.3424 19.3123 66.9631 19.2499C67.5838 19.1875 67.9764 19.1569 68.2046 19.0272C68.4328 18.8976 68.3661 18.5055 68.6276 18.4739C68.8886 18.4427 69.5446 18.9031 69.7423 19.2961C69.94 19.6889 69.8104 19.9497 69.7795 20.3742C69.7609 20.632 69.658 21.0098 69.5589 21.3324L69.5584 21.3327L69.5113 21.4841C69.4645 21.6297 69.4218 21.7557 69.3937 21.8422C69.2964 22.1356 69.4284 22.4303 69.4284 22.4303C69.4284 22.4303 70.2173 23.4465 71.1377 24.5942C71.9611 25.6212 73.2328 27.4609 73.4913 27.8368L73.5382 27.905C74.4192 29.1316 75.2386 30.1957 75.9682 31.0878C77.0915 32.4594 78.0019 33.422 78.5983 33.9395C79.5825 34.7934 80.1385 34.7309 81.0889 35.3234C82.0397 35.9159 82.893 36.6386 83.941 37.1662C84.9895 37.6942 85.3825 37.8267 85.7422 37.8285C86.1019 37.8302 86.2986 37.8966 86.2996 38.1577C86.3005 38.4191 86.0728 38.6466 85.5173 38.7747C85.2234 38.8423 84.8004 38.8728 84.3125 38.894H84.3119C83.8791 38.9155 83.3946 38.9295 82.9025 38.9577C82.4304 38.985 81.9047 38.952 81.3916 38.8946C80.7645 38.8256 80.1623 38.7219 79.6969 38.6483C78.8461 38.5135 77.2449 38.669 76.264 38.6642C75.2827 38.6595 75.0188 38.0052 74.984 37.4822C74.9492 36.9593 75.1746 36.1766 75.0416 35.686C74.9092 35.1956 74.1865 34.3753 72.5139 33.1914C71.4526 32.44 70.5498 31.7947 69.6461 31.0889L69.1243 30.6724C68.7748 30.3895 68.4209 30.0928 68.0531 29.7726C67.086 28.9309 66.0465 26.856 66.0465 26.856C66.0465 26.856 65.0385 28.2555 64.3897 29.4284C64.0743 29.9982 63.797 30.4989 63.4426 31.0889C63.0667 31.711 62.6054 32.4309 61.9215 33.4342C60.5891 35.3872 59.1237 36.8502 58.0809 37.6942C57.2782 38.3439 56.4936 38.7036 55.9367 38.894C55.7688 38.9504 55.6232 38.9915 55.5037 39.021C54.9842 39.1483 50.2656 39.1584 49.0191 38.8951H49.0134L48.9963 38.8914C47.7858 38.6241 47.2198 36.2697 47.0521 35.2563L46.6834 33.0334C46.6834 33.0334 46.2473 32.0755 45.8285 31.0896L45.8102 31.0468L45.7921 31.0039L44.9003 28.8766C44.9003 28.8766 44.5601 30.0397 44.1541 31.0889L44.0114 31.4441L43.8665 31.7785C43.3479 32.9193 41.8855 35.0354 41.3322 35.6859C40.7792 36.3365 39.2179 38.2886 38.696 38.6127C38.4779 38.7481 38.1568 38.8375 37.7327 38.894C37.1317 38.9694 36.3457 38.9795 35.3625 38.9559C34.6499 38.9388 34.0136 38.961 33.3763 38.894L33.065 38.8521C32.545 38.7702 32.0159 38.6148 31.4363 38.3163C30.0273 37.5907 27.6229 33.3329 26.8652 31.9574C26.7337 31.7186 26.5694 31.4206 26.3858 31.0889L26.3882 31.0873C25.5116 29.5002 24.1996 27.1105 23.8998 26.4883C23.5372 25.7351 23.3411 25.7996 23.3411 25.7996C23.3411 25.7996 23.1789 26.1256 22.7243 26.8418C22.1139 27.8034 22.4646 27.2978 21.586 28.3061C20.7921 29.2173 19.9704 29.8883 18.6419 31.0889L18.4244 31.2851L18.1988 31.4909C16.6027 32.9529 15.5933 33.9278 15.3013 34.4817C15.0093 35.0354 15.3084 36.1803 15.4093 36.8992C15.5104 37.6184 15.3479 37.8463 14.957 38.2036C14.5661 38.5609 12.7668 38.3237 12.0474 38.2876C11.328 38.2514 10.4119 38.1163 9.00671 38.3381C7.60183 38.5599 6.9816 38.7855 6.0007 38.7809C5.01974 38.7761 4.92098 38.6123 4.29895 38.4132C3.67691 38.2143 3.48099 38.2785 3.15396 38.2444C2.82693 38.2103 2.72712 37.8177 2.66117 37.6542C2.59506 37.4905 2.88777 37.1327 2.88777 37.1327L2.81261 37.1141C2.72047 37.0918 2.56045 37.0546 2.4296 37.0324C2.23326 36.9988 2.00351 36.769 1.90452 36.54C1.80543 36.3108 1.90262 36.0826 1.90262 36.0826C1.90262 36.0826 2.4575 35.8892 3.17613 35.6968C3.8945 35.5043 4.41673 35.2455 5.65641 34.5983C6.89619 33.951 8.85428 33.046 10.777 31.5529C10.9817 31.3939 11.1731 31.2397 11.3526 31.0889L11.7449 30.7514C12.9865 29.6468 13.6183 28.7345 14.3575 27.6506C15.0815 26.5886 17.4498 22.8264 18.3877 21.3324L18.4851 21.1774C18.6676 20.8866 18.7753 20.7147 18.7753 20.7147L19.0352 20.3238C19.0352 20.3238 18.6091 20.028 18.4446 19.7986C18.2801 19.5691 18.4083 18.9165 18.4083 18.9165C18.4083 18.9165 18.1435 18.164 18.1422 17.8373C18.1408 17.5106 18.8566 16.6648 19.1504 16.5355C19.4441 16.4064 19.5107 16.7005 19.7068 16.7016C19.9031 16.7024 20.9471 16.1197 21.2408 16.0233C21.5346 15.9265 21.9937 16.2555 22.1903 16.3543C22.3869 16.4533 22.7795 16.4879 23.237 16.4574C23.6945 16.4271 26.3706 15.166 26.3706 15.166C26.3706 15.166 27.7291 11.645 27.9229 11.0581C28.1165 10.4711 28.21 9.36098 28.21 9.36098C28.21 9.36098 28.0781 9.03385 28.0774 8.87045C28.0766 8.70714 28.0094 8.28211 28.0094 8.28211C28.0094 8.28211 28.0093 8.24949 27.7802 8.18289C27.5511 8.11664 27.3214 7.91955 27.3204 7.72353C27.3197 7.52752 28.5567 6.22709 28.5567 6.22709C28.5567 6.22709 28.4883 5.50787 28.5198 5.2143C28.5514 4.92038 28.7785 4.49698 28.7785 4.49698C28.7785 4.49698 28.6463 4.16972 28.416 3.84184C28.1858 3.51409 28.4139 3.352 28.4782 3.05817C28.5424 2.76451 29.4549 2.05039 29.8784 1.69324C30.3021 1.33592 30.3995 1.17314 30.7909 0.946506C31.1823 0.719612 32.0984 0.88753 32.0984 0.88753C32.0984 0.88753 32.1961 0.757236 32.6209 0.726618C33.0458 0.696034 33.3736 0.893621 33.3736 0.893621C33.3736 0.893621 33.8296 0.471038 34.5819 0.540099L34.3653 0.533216ZM55.5997 20.8781L55.559 20.8932C55.4889 20.963 55.5165 21.1209 55.598 21.3324L55.5975 21.3329C55.8571 22.0083 56.6646 23.2321 56.6179 23.9031C56.556 24.7849 54.2379 25.5574 54.2379 25.5574C54.2379 25.5574 54.2093 26.5045 54.1455 26.8962C54.0816 27.2878 53.8525 27.2541 53.8549 27.8095C53.8573 28.3647 54.4146 28.7594 54.7091 28.8262C55.0039 28.8929 57.3144 26.3562 58.3567 25.3162C59.3985 24.276 60.8301 22.6499 60.8301 22.6499C60.8301 22.6499 58.6697 22.0515 57.8513 21.7208C57.5783 21.6108 57.2472 21.4684 56.9214 21.3324L56.7271 21.2514C56.1496 21.0129 55.6335 20.8188 55.559 20.8932L55.5997 20.8781ZM33.3186 19.2173C33.3186 19.2173 32.6987 19.5083 31.5572 20.156C30.5509 20.727 29.5697 21.2218 29.3511 21.3324L29.3106 21.3609C29.3578 21.4356 29.999 22.4489 30.8849 23.6479C31.8056 24.8935 32.4314 26.0071 33.2879 27.5138C34.1441 29.0204 34.1092 28.4649 34.3379 28.4333C34.5666 28.4019 34.5265 26.6052 34.4906 25.7884C34.4544 24.9717 34.6792 23.9928 34.6792 23.9928C34.6792 23.9928 34.1621 22.5439 33.8911 21.3324L33.8313 21.0475C33.7951 20.862 33.7668 20.6859 33.7493 20.5261C33.6314 19.4498 33.3944 19.256 33.3333 19.2235L33.3186 19.2173ZM55.9486 12.3372C55.7185 12.0421 55.4908 12.2698 55.4908 12.2698C55.4908 12.2698 55.0359 12.9533 54.8091 13.4423C54.5819 13.9311 54.3556 14.5178 54.3556 14.5178L54.4037 14.5386C54.5923 14.6224 55.3104 14.9659 56.1258 15.6697C57.0776 16.4908 58.3867 16.8241 58.3867 16.8241C58.3867 16.8241 58.3759 16.7959 58.3561 16.7451L58.2716 16.53C58.0563 15.9854 57.5856 14.8195 57.2644 14.2055C56.8356 13.3869 56.1787 12.6322 55.9486 12.3372ZM30.4104 11.6908L30.1538 12.8978L30.1242 13.6492C30.1242 13.6492 31.8536 12.841 31.8201 12.6121L31.6212 11.9579L31.0976 11.8574C30.7376 11.7902 30.4104 11.6908 30.4104 11.6908Z" fill=""/>
</g>

</g></symbol><symbol id="nike" viewBox="0 0 97 68"><g fill="">
<path fill-rule="evenodd" clip-rule="evenodd" d="M96.9597 18.416L26.8498 47.8309C19.4067 50.7671 -0.167625 56.1174 0.73079 39.0531C1.12077 31.6432 7.42015 23.5604 12.9501 18.416C8.47791 31.5169 12.8369 39.9572 27.461 36.1265L60.3868 27.5015L96.9597 18.416Z" fill=""/>
</g></symbol><symbol id="puma" viewBox="0 0 103 50"><g fill="">
<path fill-rule="evenodd" clip-rule="evenodd" d="M25.1706 25.5532C25.5789 25.5573 25.5789 25.6025 25.5789 26.0991V44.848C25.5789 46.6392 27.66 46.6878 27.66 44.848L27.6752 26.0991C27.6752 25.5528 27.6752 25.5528 28.27 25.5528H33.648C34.1444 25.7303 34.2567 25.5528 34.2567 26.0991V46.1152C34.3204 48.8021 33.648 49.3484 31.6155 49.3484H21.2075C19.4148 49.3484 18.7576 48.8673 18.7576 45.9391L18.758 25.9736C18.7622 25.5528 18.8124 25.5528 19.4148 25.5528L25.1706 25.5532ZM57.6975 25.5534C59.5387 25.5534 60.1959 26.0996 60.1959 28.1308L60.1955 48.9861C60.191 49.3475 60.1418 49.3475 59.6011 49.3475H54.2703C53.6145 49.3475 53.6145 49.3475 53.6145 48.8664V29.4618C53.6145 27.7661 51.5334 27.859 51.5334 29.4618L51.533 48.9861C51.5284 49.3475 51.478 49.3475 50.9234 49.3475H45.7367C44.952 49.3475 44.952 49.3475 44.952 48.8664V29.4618C44.952 27.5887 42.8723 27.7661 42.8723 29.4618V48.8664C42.8723 49.3475 42.8723 49.3475 42.15 49.3475H36.9466C36.2909 49.3475 36.2909 49.3475 36.2909 48.8664V28.2597C36.2909 26.0996 36.9466 25.5534 39.158 25.5534H57.6975ZM13.2988 25.553C15.8914 25.553 16.532 26.0992 16.532 28.6115V39.9179C16.532 42.8627 15.8914 43.4714 13.2988 43.5823H8.41571C7.80706 43.5823 7.80706 43.6807 7.80706 44.3046L7.80653 48.9974C7.80175 49.3471 7.75396 49.3471 7.27605 49.3471H1.83288C1.35455 49.3471 1.20898 48.9797 1.19373 48.8521V48.8341C1.20898 48.8203 1.20898 48.8022 1.22561 48.8203L1.22599 26.0328C1.23054 25.553 1.28971 25.553 2.05887 25.553H13.2988ZM75.6922 25.553C77.4225 25.553 77.966 26.0992 77.966 28.1317L77.9654 48.9974C77.9607 49.3471 77.9131 49.3471 77.4377 49.3471L71.8797 49.3467C71.3859 49.3431 71.3859 49.3035 71.3859 48.8674V44.3046C71.3859 43.5046 70.8577 43.1178 70.328 43.1358C69.8345 43.1525 69.3534 43.5171 69.2882 44.2408L69.2877 48.9867C69.2828 49.3471 69.2287 49.3471 68.6338 49.3471L63.2635 49.3468C62.7082 49.3438 62.7082 49.3071 62.7082 48.8674V28.1484C62.7082 26.0992 63.4291 25.553 65.1746 25.553H75.6922ZM57.3935 0.241211C57.7443 0.512954 57.8399 0.420061 58.3377 1.5209C58.3848 1.63597 58.5304 1.79403 58.6898 1.89246C61.8759 2.27512 64.5171 3.57145 68.3118 6.56894C68.3118 6.56894 70.4775 8.25602 72.8644 10.1038L73.6232 10.6908C76.289 12.7518 78.9749 14.8127 79.0553 14.8127C81.6341 16.4446 86.0998 17.2612 88.6148 15.2134C91.1132 12.5376 92.6494 10.0558 93.3066 7.36753C94.0414 5.49167 97.0694 2.12955 98.7511 1.41137C100.045 0.786083 101.119 0.546228 101.616 1.34759C102.109 2.14618 102.273 2.62728 101.198 4.38806C99.4693 5.52633 97.9484 5.92563 96.347 7.20809C94.4587 8.71238 93.1277 10.8101 92.3444 13.4817C91.8314 14.9888 90.6792 16.5416 88.5663 18.1263C88.2294 18.319 87.9882 18.5922 88.1323 18.9582C89.3968 21.2306 90.054 23.5238 90.1039 26.5157C90.2303 26.9784 90.2474 27.4012 90.2411 27.8139L90.227 28.3413C90.1957 29.5698 90.2868 30.8227 92.8255 32.9058C93.1277 34.8884 94.0247 35.7397 94.1051 36.7782C93.1277 39.1171 94.3131 40.1555 93.4646 40.846C90.2481 40.1555 90.1177 37.5144 90.4228 34.3311C86.7556 32.2001 84.2572 28.1309 82.2899 23.0898C81.4885 21.0088 79.8719 20.1284 77.7576 19.6001C71.4021 19.5183 67.2719 17.2945 64.3895 13.8658C63.7989 13.4346 63.4439 12.9216 62.8686 13.644C60.965 15.2592 58.0964 14.4606 54.5111 12.9078C53.9191 12.7164 53.23 12.3476 53.1011 13.1629C52.2054 14.9417 50.4932 13.6259 50.3642 12.6832C50.202 10.2652 51.9323 9.91304 53.9329 9.73835C54.848 9.73835 55.8074 9.94493 56.7197 9.94493L56.8527 9.87725C56.9052 9.8486 56.9468 9.81516 57.0233 9.72032C57.0718 8.67772 57.2479 7.99005 55.1988 7.84724C54.0147 8.00668 53.5974 8.02332 52.5728 7.07915C52.3815 7.03201 52.2207 6.99735 52.0266 6.91832C51.917 6.80602 51.9018 6.74225 51.8214 6.58142C51.7257 6.46912 51.4678 6.34295 51.4678 5.84383C51.1795 5.63725 51.2446 5.23795 51.4041 4.78736C51.4678 4.78736 51.8852 4.16346 52.2373 3.77942C52.4134 3.57145 52.4453 3.22068 52.7018 2.99469C53.3742 2.43734 54.109 1.79403 54.109 1.79403C54.543 1.15488 54.7981 0.512953 55.1183 0.450563C55.3915 0.464427 55.6632 0.690418 55.9197 0.801333C56.032 0.866496 56.0639 0.866496 56.2552 0.866496C56.6726 0.738943 56.9776 0.561479 57.3935 0.241211ZM8.87878 28.1484C8.3353 28.1484 7.80706 28.5186 7.80706 29.2215V39.5477C7.80706 40.3019 8.3353 40.6707 8.87878 40.6707C9.39177 40.6707 9.92 40.3186 9.95189 39.6115V29.2686C9.95189 28.5186 9.42366 28.1484 8.87878 28.1484ZM70.328 28.4215C69.8178 28.4215 69.2882 28.757 69.2882 29.4627V39.6115C69.2882 40.2368 69.8178 40.5571 70.328 40.5571C70.8577 40.5723 71.3859 40.2548 71.3859 39.6115V29.4627C71.3859 28.7903 70.8577 28.4381 70.328 28.4215Z" fill=""/>
</g></symbol></svg>