<svg width="24" height="24" viewBox="0 0 24 24" fill="" xmlns="http://www.w3.org/2000/svg">
<path fill-rule="evenodd" clip-rule="evenodd" d="M8.74258 1.68457C10.628 1.68457 12.2101 3.27567 12.3102 5.17142L12.3152 5.36196L12.3148 5.57457L15.7934 5.57501L15.7928 9.92257L22.75 9.92283V21.8576H11.25V9.92283L14.2928 9.92257L14.293 7.07487H3.18397V20.3569L7.52171 20.3576V21.8576H1.68475V5.57501L5.16275 5.57457L5.16301 5.36196C5.16301 3.38433 6.79362 1.68457 8.74258 1.68457ZM21.25 11.4219H12.75V20.3569H21.25V11.4219ZM15.3587 12.8467V15.4607C15.3587 16.3616 16.1293 17.1541 17.0026 17.1541C17.8288 17.1541 18.5603 16.4444 18.635 15.6022L18.6413 15.4607V12.8467H20.1413V15.4607C20.1413 17.1814 18.7138 18.6541 17.0026 18.6541C15.3503 18.6541 13.9578 17.2807 13.8637 15.6377L13.8587 15.4607V12.8467H15.3587ZM8.74258 3.18457C7.6844 3.18457 6.7479 4.11284 6.66847 5.2112L6.66301 5.36196L6.66275 5.57457H10.8148L10.8152 5.36196C10.8152 4.19724 9.847 3.18457 8.74258 3.18457Z" fill=""/>
</svg>
